<?xml version="1.0" encoding="utf-8"?>
<!-- Generator: Adobe Illustrator 21.0.0, SVG Export Plug-In . SVG Version: 6.00 Build 0)  -->
<svg version="1.1" id="Layer_1" xmlns="http://www.w3.org/2000/svg" xmlns:xlink="http://www.w3.org/1999/xlink" x="0px" y="0px"
	 viewBox="0 0 230 113.7" style="enable-background:new 0 0 230 113.7;" xml:space="preserve">
<style type="text/css">
	.st0{clip-path:url(#SVGID_2_);fill:url(#SVGID_3_);}
	.st1{clip-path:url(#SVGID_5_);fill:url(#SVGID_6_);}
	.st2{fill:#009ADA;}
	.st3{fill:#8EA461;}
	.st4{fill:#0E7F6F;}
</style>
<g>
	<g>
		<defs>
			<polygon id="SVGID_1_" points="49.2,0 49.2,16 49.2,31.9 49.2,47.9 65.2,47.9 65.2,31.9 65.2,16 65.2,0 			"/>
		</defs>
		<clipPath id="SVGID_2_">
			<use xlink:href="#SVGID_1_"  style="overflow:visible;"/>
		</clipPath>
		
			<linearGradient id="SVGID_3_" gradientUnits="userSpaceOnUse" x1="-489.149" y1="505.3016" x2="-487.5358" y2="505.3016" gradientTransform="matrix(-16.3398 -26.5551 -26.5551 16.3398 5494.0176 -21204.0098)">
			<stop  offset="0" style="stop-color:#009761"/>
			<stop  offset="0.1828" style="stop-color:#009878"/>
			<stop  offset="1" style="stop-color:#009ADA"/>
		</linearGradient>
		<polygon class="st0" points="53.6,55 27.9,13.1 60.8,-7.1 86.6,34.7 		"/>
	</g>
	<g>
		<defs>
			<path id="SVGID_4_" d="M69.8,59.1c-3-3-4.7-7-4.7-11.3c0-4.3,1.7-8.3,4.7-11.3c3-3,7-4.7,11.3-4.7c4.3,0,8.3,1.7,11.3,4.7
				l11.3,11.3L92.4,59.1c-3,3-7,4.7-11.3,4.7C76.9,63.8,72.9,62.1,69.8,59.1 M137.6,59.1l-11.3-11.3l11.3-11.3c3-3,7-4.7,11.3-4.7
				c4.3,0,8.3,1.7,11.3,4.7c3,3,4.7,7,4.7,11.3c0,4.3-1.7,8.3-4.7,11.3c-3,3-7,4.7-11.3,4.7C144.6,63.8,140.6,62.1,137.6,59.1
				 M126.3,25.3L115,36.5l-11.3-11.3c-12.5-12.5-32.7-12.5-45.1,0c-12.5,12.5-12.5,32.7,0,45.1c12.5,12.5,32.7,12.5,45.1,0L115,59.1
				l11.3,11.3c12.5,12.5,32.7,12.5,45.2,0c12.5-12.5,12.5-32.6,0-45.1c-6.2-6.2-14.4-9.3-22.6-9.3C140.7,15.9,132.5,19,126.3,25.3"
				/>
		</defs>
		<clipPath id="SVGID_5_">
			<use xlink:href="#SVGID_4_"  style="overflow:visible;"/>
		</clipPath>
		
			<linearGradient id="SVGID_6_" gradientUnits="userSpaceOnUse" x1="-485.331" y1="493.6276" x2="-483.7181" y2="493.6276" gradientTransform="matrix(-65.7702 -37.9724 -37.9724 65.7702 -13008.0283 -50816.7148)">
			<stop  offset="0" style="stop-color:#8EA461"/>
			<stop  offset="0.9852" style="stop-color:#009ADA"/>
			<stop  offset="1" style="stop-color:#009ADA"/>
		</linearGradient>
		<polygon class="st1" points="149.5,142.5 15.8,65.3 80.5,-46.9 214.2,30.3 		"/>
	</g>
	<path class="st2" d="M10.1,103.6c-0.2,0-0.3,0.1-0.3,0.3l-2,5.2c-0.4,0.9-0.6,1.8-0.6,2.3c0,0.7,0.3,1.2,1.5,1.2h0.6
		c0.4,0,0.6,0.1,0.6,0.3c0,0.3-0.2,0.4-0.6,0.4c-1.2,0-2.8-0.1-4-0.1c-0.4,0-2.5,0.1-4.4,0.1c-0.5,0-0.7-0.1-0.7-0.4
		c0-0.2,0.1-0.3,0.5-0.3c0.3,0,0.9,0,1.2-0.1c1.7-0.2,2.4-1.5,3.2-3.4l9.4-23.3c0.4-1.1,0.7-1.5,1.1-1.5c0.3,0,0.6,0.3,0.9,1.2
		c0.9,2.1,6.9,17.1,9.3,22.8c1.4,3.4,2.5,3.9,3.3,4.1c0.6,0.1,1.1,0.2,1.6,0.2c0.3,0,0.5,0,0.5,0.3c0,0.3-0.3,0.4-1.7,0.4
		c-1.4,0-4.1,0-7.1-0.1c-0.7,0-1.1,0-1.1-0.3c0-0.2,0.1-0.3,0.5-0.3c0.3-0.1,0.5-0.4,0.3-0.9l-3-7.7c-0.1-0.2-0.2-0.3-0.4-0.3H10.1z
		 M17.7,101.8c0.2,0,0.2-0.1,0.2-0.2l-3.4-9.3c0-0.1-0.1-0.3-0.2-0.3c-0.1,0-0.2,0.2-0.2,0.3l-3.5,9.2c0,0.1,0,0.3,0.1,0.3H17.7z"/>
	<path class="st2" d="M38.3,89.9c0.1-0.5,0.3-0.8,0.5-0.8c0.2,0,0.4,0.2,0.8,1l8.6,17.4l8.5-17.6c0.3-0.5,0.4-0.8,0.7-0.8
		c0.3,0,0.5,0.3,0.6,1l2.8,19.2c0.3,2,0.6,2.9,1.5,3.2c0.9,0.3,1.5,0.3,1.9,0.3c0.3,0,0.5,0,0.5,0.2c0,0.3-0.4,0.3-0.8,0.3
		c-0.8,0-5.1-0.1-6.4-0.2c-0.7-0.1-0.9-0.2-0.9-0.3c0-0.2,0.1-0.2,0.3-0.3c0.2-0.1,0.3-0.5,0.2-1.3l-1.9-13.6h-0.1l-6.8,14
		c-0.7,1.5-0.9,1.8-1.2,1.8c-0.3,0-0.6-0.6-1.1-1.6c-0.7-1.4-3.2-6.2-3.6-7.1c-0.3-0.7-2.2-4.4-3.3-6.7h-0.1L37.5,110
		c-0.1,0.6-0.1,1-0.1,1.5c0,0.6,0.4,0.9,0.9,1c0.6,0.1,1,0.2,1.3,0.2c0.2,0,0.5,0.1,0.5,0.2c0,0.3-0.3,0.3-0.7,0.3
		c-1.3,0-2.7-0.1-3.3-0.1c-0.6,0-2.1,0.1-3.1,0.1c-0.3,0-0.6-0.1-0.6-0.3c0-0.2,0.2-0.2,0.5-0.2c0.2,0,0.5,0,0.9-0.1
		c0.9-0.2,1.1-1.4,1.3-2.5L38.3,89.9z"/>
	<path class="st2" d="M75,105.2c-0.1,0-0.2,0.1-0.3,0.3l-1.7,4.3c-0.3,0.8-0.5,1.5-0.5,1.9c0,0.6,0.3,1,1.2,1h0.5
		c0.4,0,0.5,0.1,0.5,0.2c0,0.2-0.2,0.3-0.5,0.3c-1,0-2.3-0.1-3.3-0.1c-0.3,0-2.1,0.1-3.7,0.1c-0.4,0-0.6-0.1-0.6-0.3
		c0-0.2,0.1-0.2,0.4-0.2c0.3,0,0.7,0,1-0.1c1.4-0.2,2-1.3,2.7-2.8l7.9-19.4c0.4-0.9,0.6-1.3,0.9-1.3c0.3,0,0.5,0.3,0.8,1
		c0.8,1.7,5.8,14.3,7.8,19c1.2,2.8,2.1,3.3,2.8,3.4c0.5,0.1,0.9,0.1,1.3,0.1c0.3,0,0.4,0,0.4,0.2c0,0.2-0.3,0.3-1.4,0.3
		c-1.1,0-3.4,0-5.9-0.1c-0.6,0-0.9,0-0.9-0.2c0-0.2,0.1-0.2,0.4-0.3c0.2-0.1,0.4-0.3,0.3-0.7l-2.5-6.5c-0.1-0.2-0.2-0.2-0.3-0.2H75z
		 M81.4,103.7c0.2,0,0.2-0.1,0.2-0.2l-2.8-7.7c0-0.1-0.1-0.3-0.2-0.3c-0.1,0-0.2,0.2-0.2,0.3l-2.9,7.7c0,0.1,0,0.2,0.1,0.2H81.4z"/>
	<path class="st2" d="M96.9,98.6c0-4.8,0-5.6-0.1-6.6c-0.1-1.1-0.3-1.6-1.3-1.8c-0.2-0.1-0.8-0.1-1.2-0.1c-0.3,0-0.5-0.1-0.5-0.3
		c0-0.2,0.2-0.3,0.7-0.3c1.7,0,3.6,0.1,4.3,0.1c1.1,0,3.4-0.1,4.4-0.1c2,0,4.1,0.2,5.8,1.4c0.9,0.6,2.1,2.2,2.1,4.3
		c0,2.3-1,4.5-4.1,7c2.8,3.5,4.9,6.3,6.8,8.2c1.7,1.8,3,2,3.5,2.1c0.3,0.1,0.6,0.1,0.9,0.1c0.2,0,0.4,0.1,0.4,0.2
		c0,0.2-0.2,0.3-0.6,0.3h-3c-1.8,0-2.5-0.2-3.4-0.6c-1.3-0.7-2.5-2.2-4.3-4.6c-1.3-1.7-2.7-3.9-3.1-4.3c-0.2-0.2-0.3-0.2-0.6-0.2
		l-2.7-0.1c-0.2,0-0.2,0.1-0.2,0.3v0.4c0,2.9,0,5.4,0.2,6.7c0.1,0.9,0.3,1.6,1.2,1.7c0.5,0.1,1.2,0.1,1.5,0.1c0.2,0,0.4,0.1,0.4,0.2
		c0,0.2-0.2,0.3-0.6,0.3c-1.8,0-4.1-0.1-4.6-0.1c-0.6,0-2.6,0.1-3.8,0.1c-0.4,0-0.6-0.1-0.6-0.3c0-0.2,0.1-0.2,0.5-0.2
		c0.5,0,0.8-0.1,1.1-0.1c0.6-0.1,0.8-0.8,0.9-1.7c0.2-1.3,0.2-3.8,0.2-6.7V98.6z M100.6,101.1c0,0.3,0.1,0.5,0.3,0.6
		c0.7,0.2,1.6,0.3,2.4,0.3c1.3,0,1.7-0.1,2.2-0.5c0.9-0.7,1.8-2.1,1.8-4.7c0-4.5-2.9-5.7-4.8-5.7c-0.8,0-1.3,0-1.7,0.1
		c-0.2,0.1-0.3,0.2-0.3,0.4V101.1z"/>
	<path class="st3" d="M129.8,95.6c0-5.7,0-6.8-0.1-8c-0.1-1.3-0.4-1.9-1.6-2.1c-0.3-0.1-0.9-0.1-1.5-0.1c-0.4,0-0.6-0.1-0.6-0.3
		c0-0.3,0.3-0.3,0.8-0.3c2,0,4.4,0.1,5.1,0.1c1.8,0,3.3-0.1,4.6-0.1c6.8,0,8,3.6,8,5.6c0,3.1-1.8,4.9-3.8,6.6
		c3.1,1.1,6.8,3.7,6.8,8.1c0,4-3.1,8.2-10,8.2c-0.4,0-1.5-0.1-2.6-0.1c-1.1-0.1-2.3-0.1-2.8-0.1c-0.4,0-1.2,0-2.1,0
		c-0.9,0-1.8,0.1-2.6,0.1c-0.5,0-0.8-0.1-0.8-0.4c0-0.2,0.1-0.3,0.6-0.3c0.6,0,1-0.1,1.4-0.1c0.8-0.2,0.9-1,1.1-2.1
		c0.2-1.6,0.2-4.5,0.2-8V95.6z M134.3,96.3c0,0.3,0.1,0.4,0.3,0.4c0.3,0.1,0.9,0.1,1.8,0.1c1.2,0,2.1-0.1,2.7-0.7
		c1-0.8,1.5-2.1,1.5-4c0-2.5-1.5-5.8-4.7-5.8c-0.5,0-0.9,0-1.2,0.1c-0.3,0.1-0.3,0.2-0.3,0.6V96.3z M139.3,99.3
		c-0.8-0.6-1.7-0.8-3.1-0.9c-0.7,0-1.1,0-1.6,0c-0.2,0-0.2,0.1-0.2,0.3v8.9c0,2.5,0.1,3.1,1.3,3.6c1,0.4,1.9,0.5,2.7,0.5
		c1.7,0,4.5-0.9,4.5-4.8C142.9,104.4,142.1,101.3,139.3,99.3"/>
	<path class="st3" d="M157.7,105.3c-0.2,0-0.2,0.1-0.3,0.2l-1.7,4.3c-0.3,0.8-0.5,1.5-0.5,1.9c0,0.6,0.3,1,1.3,1h0.5
		c0.4,0,0.5,0.1,0.5,0.2c0,0.2-0.2,0.3-0.5,0.3c-1,0-2.3-0.1-3.3-0.1c-0.3,0-2.1,0.1-3.7,0.1c-0.4,0-0.6-0.1-0.6-0.3
		c0-0.2,0.1-0.2,0.4-0.2c0.3,0,0.7,0,1-0.1c1.4-0.2,2-1.2,2.7-2.8l7.9-19.4c0.4-0.9,0.6-1.2,0.9-1.2c0.3,0,0.5,0.3,0.8,1
		c0.8,1.7,5.8,14.3,7.8,19c1.2,2.8,2.1,3.3,2.8,3.4c0.5,0.1,0.9,0.1,1.3,0.1c0.2,0,0.4,0,0.4,0.2c0,0.2-0.3,0.3-1.4,0.3
		c-1.1,0-3.4,0-5.9-0.1c-0.6,0-0.9,0-0.9-0.2c0-0.2,0.1-0.2,0.4-0.3c0.2-0.1,0.4-0.3,0.3-0.7l-2.5-6.5c-0.1-0.2-0.2-0.2-0.3-0.2
		H157.7z M164.1,103.7c0.2,0,0.2-0.1,0.2-0.2l-2.8-7.7c0-0.1-0.1-0.3-0.2-0.3c-0.1,0-0.2,0.2-0.2,0.3l-2.9,7.7c0,0.1,0,0.2,0.1,0.2
		H164.1z"/>
	<path class="st3" d="M182.2,109c0.1,2.4,0.5,3.3,1.1,3.5c0.5,0.2,1.1,0.2,1.6,0.2c0.3,0,0.5,0.1,0.5,0.3c0,0.2-0.3,0.3-0.7,0.3
		c-2,0-3.3-0.1-3.9-0.1c-0.3,0-1.8,0.1-3.4,0.1c-0.4,0-0.7,0-0.7-0.3c0-0.2,0.2-0.3,0.5-0.3c0.4,0,1,0,1.4-0.2
		c0.8-0.3,0.9-1.2,1-3.9l0.3-18.5c0-0.6,0.1-1.1,0.4-1.1c0.3,0,0.6,0.4,1.2,1c0.4,0.4,5.1,5.4,9.7,10c2.1,2.1,6.4,6.6,6.9,7.1h0.2
		l-0.3-14.1c0-1.9-0.3-2.5-1.1-2.8c-0.5-0.2-1.2-0.2-1.7-0.2c-0.4,0-0.5-0.1-0.5-0.3c0-0.2,0.3-0.3,0.8-0.3c1.6,0,3.1,0.1,3.8,0.1
		c0.3,0,1.5-0.1,3.1-0.1c0.4,0,0.7,0,0.7,0.3c0,0.2-0.2,0.3-0.6,0.3c-0.3,0-0.6,0-0.9,0.1c-0.9,0.3-1.1,0.9-1.2,2.7l-0.3,19.8
		c0,0.7-0.1,1-0.4,1c-0.3,0-0.7-0.3-1.1-0.7c-2-1.9-6-6-9.2-9.2c-3.4-3.4-6.9-7.2-7.5-7.8h-0.1L182.2,109z"/>
	<path class="st3" d="M211.8,100.1h0.2c1.1-1.2,5.6-5.8,6.6-6.9c0.9-1,1.6-1.8,1.6-2.4c0-0.3-0.1-0.6-0.4-0.6
		c-0.3-0.1-0.4-0.1-0.4-0.3c0-0.2,0.2-0.3,0.5-0.3c0.7,0,2.4,0.1,3.2,0.1c1,0,2.7-0.1,3.7-0.1c0.3,0,0.5,0.1,0.5,0.3
		c0,0.2-0.2,0.3-0.5,0.3c-0.4,0-1.2,0.1-1.8,0.3c-1,0.4-2,1-3.4,2.3c-1,0.9-5.7,5.6-6.8,6.8c1.1,1.5,7.3,8.1,8.5,9.2
		c1.4,1.3,2.8,2.7,4.5,3.4c0.9,0.4,1.6,0.5,1.9,0.5c0.2,0,0.4,0.1,0.4,0.3c0,0.2-0.2,0.3-0.8,0.3h-2.7c-0.9,0-1.5,0-2.2-0.1
		c-1.7-0.2-2.5-0.8-3.9-2c-1.4-1.2-7.6-8.5-8.2-9.4l-0.3-0.5h-0.2v2.8c0,2.9,0,5.4,0.1,6.7c0.1,0.9,0.4,1.6,1.1,1.7
		c0.4,0.1,1.1,0.1,1.5,0.1c0.2,0,0.4,0.1,0.4,0.3c0,0.2-0.2,0.3-0.6,0.3c-1.8,0-3.7-0.1-4.5-0.1c-0.7,0-2.7,0.1-3.9,0.1
		c-0.4,0-0.6-0.1-0.6-0.3c0-0.2,0.1-0.3,0.5-0.3c0.5,0,0.8-0.1,1.1-0.1c0.6-0.1,0.8-0.8,0.9-1.7c0.2-1.3,0.2-3.8,0.2-6.7v-5.5
		c0-4.8,0-5.6-0.1-6.6c-0.1-1.1-0.3-1.6-1.3-1.8c-0.3-0.1-0.8-0.1-1.2-0.1c-0.4,0-0.5-0.1-0.5-0.3c0-0.2,0.2-0.3,0.7-0.3
		c1.7,0,3.6,0.1,4.4,0.1c0.8,0,2.7-0.1,3.8-0.1c0.4,0,0.7,0.1,0.7,0.3c0,0.2-0.2,0.3-0.4,0.3c-0.3,0-0.5,0-0.9,0.1
		c-0.8,0.2-1.1,0.7-1.2,1.8c-0.1,1-0.1,1.9-0.1,6.6V100.1z"/>
	<polygon class="st4" points="103.8,47.8 112.3,61.8 115,59.1 115,59.1 115,59.1 	"/>
</g>
</svg>
